<?xml version="1.0" standalone="no"?>
<!DOCTYPE svg PUBLIC "-//W3C//DTD SVG 20010904//EN"
 "http://www.w3.org/TR/2001/REC-SVG-20010904/DTD/svg10.dtd">
<svg version="1.0" xmlns="http://www.w3.org/2000/svg"
 width="70.000000pt" height="70.000000pt" viewBox="0 0 70.000000 70.000000"
 preserveAspectRatio="xMidYMid meet">
<metadata>
Created by potrace 1.14, written by Peter Selinger 2001-2017
</metadata>
<g transform="translate(0.000000,70.000000) scale(0.100000,-0.100000)"
fill="#000000" stroke="none">
<path d="M282 417 c-249 -249 -262 -264 -262 -300 l0 -37 73 0 73 0 54 55 54
55 93 0 93 0 0 -55 0 -55 65 0 65 0 0 300 0 300 -23 0 c-16 0 -96 -74 -285
-263z m292 227 c-7 -3 -10 -15 -7 -27 3 -16 2 -18 -5 -8 -5 7 -15 10 -21 7 -6
-4 -11 -1 -11 7 0 19 10 27 34 26 12 0 16 -3 10 -5z m-7 -86 c-3 -7 -5 -2 -5
12 0 14 2 19 5 13 2 -7 2 -19 0 -25z m-92 3 c-3 -6 -11 -11 -16 -11 -5 0 -4 6
3 14 14 16 24 13 13 -3z m-31 -42 c-3 -5 -10 -7 -15 -3 -5 3 -7 10 -3 15 3 5
10 7 15 3 5 -3 7 -10 3 -15z m56 -114 l0 -115 -117 0 -118 0 115 115 c63 63
116 115 117 115 2 0 3 -52 3 -115z m67 38 c-3 -10 -5 -2 -5 17 0 19 2 27 5 18
2 -10 2 -26 0 -35z m-203 -4 c-3 -5 -10 -7 -15 -3 -5 3 -7 10 -3 15 3 5 10 7
15 3 5 -3 7 -10 3 -15z m203 -91 c-2 -13 -4 -3 -4 22 0 25 2 35 4 23 2 -13 2
-33 0 -45z m-283 11 c-3 -5 -10 -7 -15 -3 -5 3 -7 10 -3 15 3 5 10 7 15 3 5
-3 7 -10 3 -15z m-44 -29 c-6 -11 -15 -20 -20 -20 -6 0 -2 9 7 20 10 11 19 20
21 20 1 0 -2 -9 -8 -20z m327 -47 c-3 -10 -5 -4 -5 12 0 17 2 24 5 18 2 -7 2
-21 0 -30z m-402 -33 c3 -6 -1 -7 -9 -4 -18 7 -21 14 -7 14 6 0 13 -4 16 -10z
m-15 -14 c0 -2 -7 -7 -16 -10 -8 -3 -12 -2 -9 4 6 10 25 14 25 6z m238 -6 c94
4 108 3 105 -10 -3 -13 -22 -15 -115 -12 l-111 4 -43 -45 c-23 -25 -45 -43
-48 -39 -3 3 -6 1 -6 -5 0 -15 -35 -22 -51 -11 -11 8 -11 9 1 5 9 -2 35 16 61
42 25 26 52 45 59 43 8 -3 10 0 5 8 -8 14 16 33 27 22 4 -4 56 -5 116 -2z
m179 -22 c-3 -7 -5 -2 -5 12 0 14 2 19 5 13 2 -7 2 -19 0 -25z m-482 -38 c3
-5 -1 -10 -10 -10 -9 0 -13 5 -10 10 3 6 8 10 10 10 2 0 7 -4 10 -10z m488
-57 c-7 -2 -19 -2 -25 0 -7 3 -2 5 12 5 14 0 19 -2 13 -5z"/>
<path d="M204 168 l-19 -23 23 19 c21 18 27 26 19 26 -2 0 -12 -10 -23 -22z"/>
</g>
</svg>
